<svg width="28" height="22" viewBox="0 0 28 22" fill="none" xmlns="http://www.w3.org/2000/svg">
<path fill-rule="evenodd" clip-rule="evenodd" d="M10.6369 0.929718H17.3639C17.8252 0.929718 18.4305 1.22994 18.7145 1.60014L20.563 4.32578C20.7437 4.59102 21.0439 4.75211 21.3645 4.75211H25.3398C26.2674 4.75211 27.0175 5.50878 27.0175 6.44689V19.7632C27.0175 20.6997 26.2674 21.4588 25.3398 21.4588H2.66092C1.73339 21.4588 0.982422 20.7013 0.982422 19.7632V6.44689C0.982422 5.51041 1.73339 4.75211 2.66092 4.75211H6.65255C6.96254 4.75211 7.25301 4.59753 7.42875 4.34042L9.28543 1.60014C9.5702 1.23076 10.178 0.929718 10.6369 0.929718ZM20.2994 6.87392C20.2994 7.34257 20.6753 7.72253 21.1391 7.72253C21.6037 7.72253 21.9788 7.34257 21.9788 6.87392C21.9788 6.40528 21.6037 6.0245 21.1391 6.0245C20.6753 6.0245 20.2994 6.40528 20.2994 6.87392ZM7.81483 12.7018C7.81483 16.155 10.584 18.9542 14.0004 18.9542C17.4168 18.9542 20.1851 16.155 20.1851 12.7018C20.1851 9.2478 17.4168 6.44948 14.0004 6.44948C10.584 6.44948 7.81483 9.2478 7.81483 12.7018ZM3.5014 1.77893H5.18234C5.6461 1.77893 6.02118 2.15645 6.02118 2.62835V3.47696H2.66174V2.62835C2.66174 2.15889 3.03519 1.77893 3.5014 1.77893ZM8.94062 12.7035C8.94062 9.87732 11.2053 7.58853 14.0004 7.58853C16.7954 7.58853 19.0601 9.87732 19.0601 12.7035C19.0601 15.5289 16.7954 17.8185 14.0004 17.8185C11.2053 17.8185 8.94062 15.5289 8.94062 12.7035Z" fill="#C4C4C4"/>
</svg>
