<svg width="54" height="42" viewBox="0 0 54 42" fill="none" xmlns="http://www.w3.org/2000/svg">
<path fill-rule="evenodd" clip-rule="evenodd" d="M20.2738 0.859619H33.7279C34.6505 0.859619 35.8612 1.46007 36.4291 2.20047L40.1262 7.65173C40.4875 8.18222 41.0879 8.50441 41.7291 8.50441H49.6798C51.5348 8.50441 53.0351 10.0177 53.0351 11.894V38.5266C53.0351 40.3996 51.5348 41.9178 49.6798 41.9178H4.32197C2.46691 41.9178 0.964966 40.4028 0.964966 38.5266V11.894C0.964966 10.021 2.46691 8.50441 4.32197 8.50441H12.3052C12.9252 8.50441 13.5061 8.19523 13.8576 7.68103L17.571 2.20047C18.1405 1.4617 19.3561 0.859619 20.2738 0.859619ZM39.599 12.748C39.599 13.6853 40.3508 14.4452 41.2783 14.4452C42.2075 14.4452 42.9576 13.6853 42.9576 12.748C42.9576 11.8107 42.2075 11.0491 41.2783 11.0491C40.3508 11.0491 39.599 11.8107 39.599 12.748ZM14.6298 24.4036C14.6298 31.3099 20.1682 36.9083 27.0009 36.9083C33.8336 36.9083 39.3703 31.3099 39.3703 24.4036C39.3703 17.4955 33.8336 11.8989 27.0009 11.8989C20.1682 11.8989 14.6298 17.4955 14.6298 24.4036ZM6.0029 2.5582H9.36479C10.2923 2.5582 11.0425 3.31324 11.0425 4.25704V5.95425H4.32359V4.25704C4.32359 3.31812 5.07049 2.5582 6.0029 2.5582ZM16.8814 24.4074C16.8814 18.7549 21.4108 14.1774 27.0009 14.1774C32.5909 14.1774 37.1204 18.7549 37.1204 24.4074C37.1204 30.058 32.5909 34.6374 27.0009 34.6374C21.4108 34.6374 16.8814 30.058 16.8814 24.4074Z" fill="#F3F3F3"/>
</svg>
