<svg width="22" height="22" viewBox="0 0 22 22" fill="none" xmlns="http://www.w3.org/2000/svg">
<path fill-rule="evenodd" clip-rule="evenodd" d="M11 0.607178C10.5486 0.607178 10.1834 0.972367 10.1834 1.42371V1.56323C10.1834 1.95339 9.90978 2.30144 9.52354 2.36459C9.33801 2.39298 9.15297 2.4297 8.96939 2.46984C8.5905 2.55747 8.20817 2.34354 8.05887 1.98423L8.00551 1.85793C7.83319 1.44085 7.35737 1.2421 6.94029 1.41588C6.52321 1.5882 6.32446 2.06451 6.49873 2.4811L6.55209 2.61327C6.70336 2.97063 6.58293 3.39701 6.25201 3.60163C6.09144 3.70101 5.93431 3.80626 5.78353 3.91542C5.46583 4.1411 5.02818 4.08921 4.75258 3.81409L4.65516 3.71472C4.33599 3.39701 3.81953 3.39701 3.50036 3.71472C3.18266 4.03389 3.18266 4.55034 3.50036 4.86952L3.59974 4.96693C3.87485 5.24254 3.92674 5.68018 3.70107 5.99789C3.5919 6.14866 3.48665 6.3058 3.38728 6.46637C3.18266 6.79729 2.75627 6.91771 2.39696 6.76841L2.26674 6.71505C1.85162 6.54273 1.37188 6.73952 1.19957 7.1566C1.02774 7.57173 1.22453 8.04951 1.64161 8.22182L1.76987 8.27322C2.12723 8.42253 2.34311 8.80485 2.25549 9.18375C2.21534 9.36732 2.17863 9.55236 2.14828 9.7379C2.08709 10.1227 1.73903 10.3978 1.34888 10.3978H1.20936C0.758012 10.3978 0.392822 10.763 0.392822 11.2143C0.392822 11.6657 0.758012 12.0309 1.20936 12.0309H1.34888C1.73903 12.0309 2.08709 12.3045 2.15024 12.6907C2.17863 12.8763 2.21534 13.0613 2.25549 13.2449C2.34311 13.6238 2.12919 14.0061 1.76987 14.1554L1.64357 14.2088C1.22649 14.3811 1.02774 14.8569 1.20153 15.274C1.37384 15.6911 1.85015 15.8898 2.26674 15.7156L2.39892 15.6622C2.75823 15.5129 3.18266 15.6333 3.38924 15.9623C3.48861 16.1228 3.5919 16.28 3.70107 16.4327C3.9287 16.7504 3.87681 17.1881 3.60169 17.4617L3.50036 17.5611C3.18266 17.8803 3.18266 18.3967 3.50036 18.7139C3.81953 19.0336 4.33599 19.0336 4.65516 18.7139L4.75454 18.6165C5.03014 18.3414 5.46583 18.2875 5.78353 18.5152C5.93626 18.6243 6.0934 18.7296 6.25201 18.829C6.58293 19.0336 6.70532 19.46 6.55601 19.8193L6.50069 19.9475C6.32838 20.3641 6.52713 20.8424 6.94225 21.0162C7.35884 21.1885 7.83515 20.9917 8.00942 20.5746L8.06083 20.4464C8.21013 20.089 8.59246 19.8731 8.97086 19.9588C9.15444 20.0009 9.33801 20.0371 9.5255 20.068C9.90831 20.1272 10.1834 20.4753 10.1834 20.8654V21.0049C10.1834 21.4563 10.5486 21.8215 11 21.8215C11.4513 21.8215 11.8165 21.4563 11.8165 21.0049V20.8654C11.8165 20.4753 12.0901 20.1272 12.4764 20.0641C12.6619 20.0357 12.847 19.9989 13.0305 19.9588C13.4094 19.8712 13.7918 20.0851 13.9411 20.4444L13.9944 20.5707C14.1667 20.9878 14.6426 21.1865 15.0596 21.0128C15.4767 20.8404 15.6755 20.3641 15.5012 19.9475L15.4478 19.8154C15.2985 19.4561 15.419 19.0316 15.7479 18.825C15.9085 18.7257 16.0656 18.6224 16.2184 18.5132C16.5361 18.2856 16.9737 18.3375 17.2474 18.6126L17.3467 18.7139C17.6659 19.0316 18.1824 19.0316 18.4996 18.7139C18.8192 18.3948 18.8192 17.8783 18.4996 17.5591L18.4022 17.4597C18.127 17.1841 18.0732 16.7485 18.3008 16.4308C18.41 16.278 18.5152 16.1209 18.6146 15.9603C18.8192 15.6314 19.2456 15.509 19.6049 15.6583L19.7332 15.7136C20.1498 15.8859 20.628 15.6872 20.8018 15.272C20.9741 14.8554 20.7774 14.3791 20.3603 14.2049L20.232 14.1535C19.8747 14.0042 19.6588 13.6218 19.7444 13.2434C19.7865 13.0598 19.8228 12.8763 19.8536 12.6888C19.9128 12.306 20.2609 12.0309 20.6511 12.0309H20.7906C21.2419 12.0309 21.6071 11.6657 21.6071 11.2143C21.6071 10.763 21.2419 10.3978 20.7906 10.3978H20.6511C20.2609 10.3978 19.9128 10.1241 19.8497 9.7379C19.8213 9.55236 19.7846 9.36732 19.7444 9.18375C19.6568 8.80485 19.8707 8.42253 20.2301 8.27322L20.3564 8.21986C20.7734 8.04755 20.9722 7.57173 20.7984 7.15465C20.6261 6.73757 20.1498 6.53882 19.7332 6.71309L19.601 6.76645C19.2417 6.91575 18.8173 6.79533 18.6107 6.46637C18.5113 6.3058 18.408 6.14866 18.2989 5.99593C18.0712 5.67822 18.1231 5.24058 18.3982 4.96693L18.4996 4.86756C18.8173 4.54839 18.8173 4.03193 18.4996 3.71276C18.1804 3.39505 17.6639 3.39505 17.3448 3.71276L17.2474 3.81409C16.9717 4.08921 16.5341 4.14305 16.2164 3.91542C16.0637 3.80626 15.9065 3.70101 15.746 3.60163C15.417 3.39701 15.2966 2.97063 15.4459 2.61131L15.4992 2.4811C15.6716 2.06598 15.4748 1.58624 15.0577 1.41392C14.6426 1.2421 14.1648 1.43889 13.9925 1.85597L13.9391 1.98423C13.7898 2.34158 13.4075 2.55747 13.0291 2.46984C12.8455 2.4297 12.6619 2.39298 12.4744 2.36263C12.0901 2.30144 11.8165 1.95339 11.8165 1.56323V1.42371C11.8165 0.972367 11.4513 0.607178 11 0.607178ZM11 4.68791C14.3273 4.68791 17.0692 7.17962 17.4711 10.3978H12.4113C12.1205 9.89309 11.5815 9.58322 11 9.58322H10.998L8.46813 5.19653C9.24648 4.86953 10.1012 4.68791 11 4.68791ZM7.05877 6.01893L9.58866 10.3978C9.44523 10.6465 9.36886 10.9275 9.36886 11.2143C9.36886 11.4992 9.44523 11.7802 9.58866 12.0269L7.05681 16.4077C5.48884 15.2148 4.47356 13.335 4.47356 11.2143C4.47356 9.09172 5.4908 7.21192 7.05877 6.01893ZM12.4113 12.0308H17.4711C17.0692 15.249 14.3273 17.7407 11 17.7407C10.1012 17.7407 9.24648 17.5591 8.46813 17.2321L10.998 12.8454H11C11.583 12.8454 12.1205 12.5336 12.4113 12.0308Z" fill="black"/>
</svg>
